<svg width="19" height="20" viewBox="0 0 19 20" fill="none" xmlns="http://www.w3.org/2000/svg">
<path d="M8.05 0.532007C8.45577 0.190029 8.96935 0.00247192 9.5 0.00247192C10.0307 0.00247192 10.5442 0.190029 10.95 0.532007L17.7 6.22401C18.207 6.65201 18.5 7.28101 18.5 7.94401V17.747C18.5 18.2111 18.3156 18.6563 17.9874 18.9844C17.6592 19.3126 17.2141 19.497 16.75 19.497H13.25C12.7859 19.497 12.3408 19.3126 12.0126 18.9844C11.6844 18.6563 11.5 18.2111 11.5 17.747V12.247C11.5 12.1807 11.4737 12.1171 11.4268 12.0702C11.3799 12.0233 11.3163 11.997 11.25 11.997H7.75C7.6837 11.997 7.62011 12.0233 7.57322 12.0702C7.52634 12.1171 7.5 12.1807 7.5 12.247V17.747C7.5 18.2111 7.31563 18.6563 6.98744 18.9844C6.65925 19.3126 6.21413 19.497 5.75 19.497H2.25C2.02019 19.497 1.79262 19.4517 1.5803 19.3638C1.36798 19.2759 1.17507 19.1469 1.01256 18.9844C0.850061 18.8219 0.721157 18.629 0.633211 18.4167C0.545265 18.2044 0.5 17.9768 0.5 17.747V7.94401C0.5 7.28101 0.793 6.65201 1.3 6.22401L8.05 0.532007ZM9.983 1.67901C9.84779 1.56519 9.67673 1.50278 9.5 1.50278C9.32327 1.50278 9.15221 1.56519 9.017 1.67901L2.267 7.37001C2.18347 7.44032 2.1163 7.52803 2.07018 7.627C2.02406 7.72597 2.00011 7.83382 2 7.94301V17.746C2 17.884 2.112 17.996 2.25 17.996H5.75C5.8163 17.996 5.87989 17.9697 5.92678 17.9228C5.97366 17.8759 6 17.8123 6 17.746V12.246C6 11.279 6.784 10.496 7.75 10.496H11.25C12.216 10.496 13 11.279 13 12.246V17.746C13 17.884 13.112 17.996 13.25 17.996H16.75C16.8163 17.996 16.8799 17.9697 16.9268 17.9228C16.9737 17.8759 17 17.8123 17 17.746V7.94401C16.9999 7.83482 16.9759 7.72697 16.9298 7.628C16.8837 7.52903 16.8165 7.44132 16.733 7.37101L9.983 1.67901Z" fill="white"/>
</svg>
