<svg width="375" height="587" viewBox="0 0 375 587" fill="none" xmlns="http://www.w3.org/2000/svg">
<g opacity="0.2" clip-path="url(#clip0_1_864)">
<path d="M-46.9887 827.836C-43.5192 685.969 -41.9862 497.442 -49.0058 274.363C-53.2822 138.569 -60.0598 9.49263 -26.0103 0.844612C18.972 -10.619 44.509 211.092 239.446 342.341C353.899 419.368 431.922 404.325 478.276 488.754C521.362 567.229 515.876 686.934 457.701 732.507C399.769 777.879 316.178 729.048 274.141 782.384C244.933 819.43 266.314 867.014 233.798 885.356C208.987 899.353 175.18 883.707 154.322 874.093C107.444 852.453 82.391 815.206 71.6195 796.462" stroke="#296431" stroke-width="2" stroke-miterlimit="10"/>
<path d="M-46.989 827.836C-36.8629 687.899 -34.0792 509.107 -41.8251 300.549C-42.0671 293.63 -42.3899 286.672 -42.7126 279.713C-48.4413 145.93 -58.6077 21.7206 -26.2527 9.69386C6.70745 -2.53403 36.3998 114.556 129.915 230.238C159.446 266.56 192.729 304.491 236.581 336.951C251.387 347.932 265.709 357.223 279.95 364.946C368.624 413.134 434.867 406.939 476.743 478.778C506.475 529.862 512.648 602.626 497.076 663.202C489.41 693.088 475.573 720.078 453.707 737.696C397.872 782.746 316.017 736.328 274.302 788.297C245.578 824.256 265.507 870.473 233.314 887.849C208.14 901.405 174.413 885.396 153.636 875.461C147.585 872.524 141.897 869.387 136.612 866.089C100.666 843.644 80.7771 812.913 71.6192 796.422" stroke="#2A6A39" stroke-width="2" stroke-miterlimit="10"/>
<path d="M-46.9885 827.836C-30.0848 685.405 -26.0505 508.865 -35.2891 305.738C-35.6118 298.859 -36.0556 291.981 -36.4187 285.063C-43.8821 153.331 -56.9936 33.828 -26.454 18.6236C5.25554 2.81583 41.1204 110.212 132.86 222.234C162.149 258.033 192.205 297.773 233.758 331.561C247.837 343.025 261.594 352.879 275.795 360.763C362.774 409.152 431.599 398.05 475.21 468.843C506.597 519.806 511.438 596.673 494.615 663.645C486.869 694.456 473.153 723.497 449.713 742.925C395.896 787.492 315.735 743.528 274.504 794.25C246.143 829.083 264.741 873.972 232.87 890.383C207.333 903.537 173.647 887.125 152.991 876.868C146.899 873.811 141.251 870.594 136.007 867.255C100.061 844.328 80.5758 813.114 71.6196 796.502" stroke="#2A7041" stroke-width="2" stroke-miterlimit="10"/>
<path d="M-46.9884 827.836C-23.3071 682.871 -18.1029 508.664 -28.7534 310.886C-29.1165 304.048 -29.6813 297.25 -30.1654 290.412C-39.2426 160.732 -55.3797 45.8143 -26.7363 27.5127C3.76298 8.0044 46.002 105.667 135.684 214.229C164.812 249.465 191.559 291.056 230.813 326.211C244.166 338.157 257.359 348.535 271.559 356.62C356.804 405.21 428.251 389.201 473.597 458.908C506.758 509.75 510.228 590.76 492.195 664.087C484.408 695.783 470.773 726.956 445.72 748.154C393.798 792.118 315.533 750.809 274.666 800.203C246.748 833.95 263.894 877.432 232.386 892.918C206.446 905.628 172.84 888.855 152.306 878.236C146.173 875.058 140.566 871.72 135.402 868.341C99.4967 844.891 80.3742 813.195 71.6197 796.462" stroke="#2B7649" stroke-width="2" stroke-miterlimit="10"/>
<path d="M-46.9887 827.836C-16.5298 680.337 -10.196 508.423 -22.2182 316.035C-22.6216 309.237 -23.3074 302.48 -23.8722 295.722C-34.5227 168.093 -53.726 57.6402 -26.9383 36.362C2.43139 13.0325 50.9236 101.081 138.629 206.145C167.595 240.857 191.075 284.258 227.989 320.741C240.616 333.21 253.203 344.111 267.404 352.356C350.954 401.107 424.983 380.231 472.063 448.892C506.92 499.735 508.977 584.807 489.774 664.53C481.907 697.151 468.392 730.375 441.766 753.343C391.66 796.583 315.331 758.049 274.907 806.075C247.434 838.697 263.127 880.81 231.983 895.331C205.639 907.639 172.154 890.464 151.7 879.523C145.568 876.225 139.92 872.766 134.837 869.387C98.972 845.414 80.2125 813.275 71.6598 796.422" stroke="#2B7C51" stroke-width="2" stroke-miterlimit="10"/>
<path d="M-46.9889 827.836C-9.75242 677.844 -2.36967 508.182 -15.6828 321.224C-16.1669 314.466 -16.9335 307.789 -17.579 301.112C-29.8029 175.535 -52.1125 69.3854 -27.1805 45.2916C1.01915 18.0202 55.8452 96.5764 141.493 198.18C170.298 232.25 190.469 277.541 225.084 315.351C236.945 328.303 249.007 339.726 263.208 348.173C345.064 397.045 421.796 371.302 470.53 438.917C507.121 489.679 507.726 578.854 487.353 664.972C479.405 698.478 465.971 733.754 437.772 758.572C389.441 801.048 315.129 765.329 275.069 812.029C248.039 843.564 262.239 884.229 231.498 897.865C204.751 909.731 171.347 892.194 151.014 880.931C144.842 877.512 139.234 873.972 134.231 870.513C98.4069 845.977 80.0509 813.436 71.6999 796.422" stroke="#2C8259" stroke-width="2" stroke-miterlimit="10"/>
<path d="M-46.9884 827.836C-2.97424 675.309 5.4574 507.98 -9.14672 326.372C-9.67118 319.695 -10.5587 313.058 -11.2849 306.421C-25.0821 182.895 -50.5385 80.9694 -27.3817 54.1002C-0.392276 22.726 60.8079 91.9504 144.439 190.055C173.082 223.642 189.946 270.823 222.26 309.961C233.395 323.436 244.893 335.342 259.053 343.99C339.214 392.982 418.569 362.372 468.957 428.941C507.323 479.623 506.476 572.901 484.893 665.374C476.864 699.765 463.551 737.132 433.738 763.76C387.142 805.391 314.888 772.569 275.19 817.941C248.604 848.39 261.312 887.608 230.934 900.359C203.743 911.782 170.5 893.842 150.208 882.298C144.035 878.759 138.428 875.098 133.465 871.639C97.6813 846.58 79.6883 813.597 71.5391 796.462" stroke="#2D8861" stroke-width="2" stroke-miterlimit="10"/>
<path d="M-46.9887 827.836C3.80299 672.775 13.2029 507.739 -2.61152 331.521C-3.21666 324.884 -4.18489 318.287 -5.03209 311.771C-20.3624 190.297 -49.0462 92.5138 -27.6645 62.9899C-1.92571 27.4727 65.7294 87.3652 147.262 182.051C175.745 215.114 189.3 264.147 219.315 304.571C229.723 318.569 240.656 330.958 254.776 339.807C333.284 388.879 415.341 353.442 467.383 418.966C507.525 469.527 505.144 566.948 482.472 665.817C474.363 701.133 461.13 740.511 429.784 768.949C384.842 809.736 314.685 779.81 275.432 823.854C249.249 853.177 260.505 890.947 230.53 902.853C202.895 913.794 169.814 895.532 149.602 883.626C143.389 879.966 137.822 876.225 132.9 872.685C97.1565 847.063 79.5266 813.678 71.579 796.382" stroke="#2D8E68" stroke-width="2" stroke-miterlimit="10"/>
<path d="M-46.9885 827.836C10.5808 670.281 20.9086 507.497 3.92421 336.709C3.27873 330.112 2.18948 323.596 1.26159 317.12C-15.6421 197.697 -47.634 104.017 -27.9063 71.8787C-3.53922 32.1783 70.6918 82.7792 150.167 174.006C178.488 206.506 188.735 257.469 216.451 299.181C226.093 313.701 236.461 326.573 250.621 335.623C327.474 384.776 412.235 344.472 465.85 409.031C507.767 459.511 503.894 561.035 480.051 666.259C471.862 702.46 458.71 743.89 425.79 774.178C382.502 814.039 314.484 787.09 275.593 829.807C249.895 858.044 259.577 894.325 230.046 905.386C201.968 915.885 169.007 897.221 148.917 885.033C142.704 881.252 137.136 877.391 132.295 873.851C96.5919 847.666 79.3251 813.838 71.5792 796.462" stroke="#2E9470" stroke-width="2" stroke-miterlimit="10"/>
<path d="M-46.9883 827.836C17.3586 667.748 28.5739 507.256 10.5003 341.858C9.77414 335.302 8.60417 328.866 7.5956 322.471C-10.8008 205.099 -46.1815 115.481 -28.0675 80.7686C-5.11241 36.8045 75.7751 78.1943 153.153 166.002C181.312 197.939 188.211 250.833 213.667 293.832C222.583 308.875 232.386 322.269 246.506 331.481C321.705 380.674 409.169 335.543 464.358 399.096C508.09 449.456 502.643 555.082 477.671 666.742C469.36 703.828 456.33 747.269 421.836 779.448C380.162 818.344 314.323 794.411 275.836 835.801C250.581 862.951 258.73 897.744 229.643 907.961C201.12 917.977 168.322 898.991 148.312 886.482C142.058 882.58 136.531 878.598 131.731 875.018C96.0675 848.27 79.2042 814.04 71.6601 796.502" stroke="#2F9A78" stroke-width="2" stroke-miterlimit="10"/>
<path d="M-46.9884 827.836C24.1362 665.254 36.1583 506.975 17.0358 347.007C16.2693 340.491 14.9783 334.135 13.8487 327.78C-6.08068 212.46 -44.9309 126.905 -28.35 89.6178C-6.92787 41.39 80.697 73.5687 155.977 157.917C183.975 189.291 187.525 244.156 210.722 288.361C218.871 303.928 228.15 317.805 242.27 327.217C315.856 376.45 406.022 326.493 462.744 389.08C508.291 439.319 501.272 549.089 475.17 667.144C466.779 705.115 453.829 750.567 417.802 784.637C377.701 822.527 314.121 801.651 275.957 841.673C251.146 867.738 257.762 901.003 229.119 910.375C200.112 919.908 167.515 900.56 147.585 887.769C141.292 883.747 135.805 879.684 131.045 876.064C95.4624 848.752 78.9218 814.12 71.5794 796.462" stroke="#2FA080" stroke-width="2" stroke-miterlimit="10"/>
<path d="M-46.9888 827.836C30.9134 662.719 43.7021 506.733 23.5709 352.195C22.7237 345.719 21.3521 339.444 20.1418 333.169C-1.28028 219.901 -43.6403 138.408 -28.5521 98.5468C-8.70335 46.0554 85.7394 68.9827 158.921 149.952C186.758 180.763 186.96 237.559 207.898 283.051C215.321 299.181 224.035 313.46 238.115 323.114C310.006 372.307 402.915 317.563 461.211 379.145C508.614 429.223 499.98 543.175 472.749 667.586C464.237 706.442 451.367 753.905 413.808 789.825C375.28 826.71 313.919 808.891 276.118 847.585C251.75 872.564 256.834 904.26 228.634 912.868C199.184 921.878 166.708 902.249 146.899 889.096C140.606 884.913 135.079 880.77 130.439 877.109C94.8972 849.235 78.7197 814.2 71.579 796.381" stroke="#30A688" stroke-width="2" stroke-miterlimit="10"/>
<path d="M-46.9887 827.837C37.691 660.186 51.2059 506.492 30.1066 357.344C29.1787 350.909 27.7263 344.674 26.4354 338.48C3.5206 227.262 -42.43 149.832 -28.7941 107.397C-10.5994 50.6414 90.7823 64.3173 161.786 141.868C189.501 172.116 186.314 230.882 204.993 277.622C211.65 294.274 219.839 309.036 233.879 318.891C304.196 368.124 399.849 308.553 459.637 369.17C508.896 419.127 498.649 537.183 470.328 668.029C461.735 707.81 448.906 757.204 409.854 795.054C372.86 830.893 313.758 816.172 276.36 853.539C252.436 877.432 255.946 907.559 228.231 915.403C198.296 923.89 166.022 903.939 146.294 890.504C139.96 886.2 134.474 881.937 129.875 878.277C94.3728 849.839 78.5584 814.402 71.6194 796.462" stroke="#30AC90" stroke-width="2" stroke-miterlimit="10"/>
<path d="M-46.9887 827.836C44.4687 657.691 58.6291 506.251 36.6422 362.492C35.674 356.097 34.1006 349.943 32.7289 343.829C8.32149 234.663 -41.2196 161.295 -29.036 116.286C-12.5358 55.307 95.8252 59.6913 164.691 133.863C192.245 163.548 185.669 224.285 202.129 272.231C208.019 289.447 215.684 304.651 229.723 314.707C298.427 363.941 396.783 299.503 458.105 359.234C509.219 408.991 497.318 531.229 467.908 668.471C459.194 709.137 446.405 760.502 405.86 800.283C370.399 835.076 313.596 823.452 276.521 859.492C253.082 882.298 254.978 910.817 227.747 917.936C197.288 925.9 165.255 905.628 145.608 891.912C139.275 887.487 133.788 883.143 129.269 879.402C93.8484 850.401 78.3568 814.562 71.6598 796.462" stroke="#31B198" stroke-width="2" stroke-miterlimit="10"/>
<path d="M-46.9889 827.836C51.2461 655.157 66.0116 506.009 43.1775 367.681C42.1286 361.366 40.4745 355.252 38.9818 349.178C13.122 242.064 -40.0903 172.799 -29.2784 125.175C-14.5129 59.9727 100.868 55.0252 167.555 125.818C194.988 154.94 184.983 217.648 199.224 266.841C204.347 284.58 211.488 300.267 225.487 310.524C292.618 359.717 393.717 290.493 456.531 349.259C509.542 398.854 495.946 525.276 465.487 668.914C456.652 710.464 443.904 763.76 401.866 805.472C367.898 839.179 313.394 830.732 276.723 865.404C253.727 887.125 254.05 914.034 227.303 920.43C196.36 927.831 164.529 907.277 144.963 893.279C138.588 888.734 133.142 884.269 128.664 880.528C93.3237 850.924 78.1951 814.683 71.6596 796.462" stroke="#32B7A0" stroke-width="2" stroke-miterlimit="10"/>
<path d="M-46.9886 827.836C58.024 652.623 73.3543 505.808 49.7133 372.83C48.5837 366.555 46.849 360.522 45.2756 354.528C17.9635 249.425 -38.92 184.343 -29.5201 134.064C-16.5297 64.6388 105.951 50.3595 170.46 117.814C197.772 146.373 184.338 211.052 196.36 261.492C200.717 279.753 207.333 295.883 221.332 306.381C286.889 355.534 390.732 281.483 454.998 339.364C509.865 388.799 494.615 519.404 463.026 669.396C454.111 711.832 441.322 767.059 397.873 810.741C365.397 843.362 313.233 838.053 276.884 871.398C254.373 892.032 253.082 917.293 226.819 923.004C195.392 929.802 163.763 909.047 144.237 894.687C137.863 890.021 132.416 885.436 127.979 881.655C92.6785 851.487 77.913 814.844 71.5792 796.502" stroke="#32BDA8" stroke-width="2" stroke-miterlimit="10"/>
<path d="M-46.9889 827.837C64.8013 650.13 80.6157 505.567 56.2486 377.979C55.0383 371.744 53.2229 365.751 51.5688 359.838C22.8447 256.786 -37.7907 195.807 -29.7222 142.914C-18.5472 69.305 111.075 45.6537 173.364 109.729C200.555 137.685 183.651 204.375 193.495 256.022C197.086 274.846 203.177 291.418 217.136 302.118C281.12 351.19 387.706 272.312 453.425 329.309C510.227 378.542 493.243 513.371 460.606 669.799C451.569 713.12 438.78 770.237 393.878 815.93C362.895 847.465 313.072 845.334 277.045 877.311C255.018 896.86 252.113 920.471 226.334 925.499C194.383 931.693 162.956 910.697 143.551 896.055C137.176 891.228 131.73 886.563 127.373 882.782C92.1537 852.011 77.711 815.005 71.5789 796.502" stroke="#33C3B0" stroke-width="2" stroke-miterlimit="10"/>
<path d="M-46.9888 827.836C71.579 647.596 87.7968 505.366 62.7842 383.167C61.5336 376.973 59.5971 371.06 57.8624 365.228C27.7262 264.227 -36.661 207.392 -29.9641 151.803C-20.6045 74.011 116.158 40.9475 176.269 101.685C203.339 129.077 182.966 197.738 190.631 250.632C193.455 269.979 199.022 286.994 212.981 297.934C275.391 346.926 384.721 263.222 451.892 319.333C510.55 368.365 491.871 507.377 458.185 670.201C449.027 714.447 436.198 773.374 389.925 821.119C360.434 851.528 312.951 852.614 277.287 883.184C255.744 901.686 251.186 923.608 225.891 927.912C193.415 933.463 162.229 912.265 142.905 897.342C136.491 892.395 131.085 887.648 126.768 883.787C91.6294 852.413 77.5094 815.045 71.6193 796.422" stroke="#33C9B8" stroke-width="2" stroke-miterlimit="10"/>
<path d="M-46.9884 827.836C78.3571 645.061 94.938 505.165 69.3202 388.316C67.9889 382.162 65.9717 376.33 64.116 370.537C32.5678 271.548 -35.5713 218.936 -30.2057 160.652C-22.6616 78.7172 121.322 36.2011 179.174 93.6803C206.123 120.469 182.28 191.101 187.767 245.282C189.784 265.192 194.908 282.649 208.786 293.791C269.623 342.703 381.695 254.171 450.359 309.438C510.914 358.189 490.5 501.424 455.765 670.644C446.486 715.774 433.576 776.552 385.931 826.308C357.893 855.631 312.79 859.894 277.449 889.096C256.39 906.513 250.218 926.745 225.407 930.406C192.447 935.313 161.463 913.914 142.22 898.71C135.805 893.642 130.399 888.774 126.163 884.873C91.1054 852.936 77.3485 815.166 71.6198 796.382" stroke="#34CFC0" stroke-width="2" stroke-miterlimit="10"/>
<path d="M-46.9887 827.836C85.1344 642.567 102.038 504.963 75.8555 393.505C74.4435 387.391 72.3457 381.599 70.4092 375.927C37.4491 278.989 -34.4823 230.56 -30.4481 169.581C-24.7597 83.5035 126.446 31.4948 182.038 85.6756C208.906 111.861 181.554 184.504 184.862 239.892C186.113 260.325 190.712 278.225 204.549 289.608C263.853 338.399 378.629 245.04 448.745 299.463C511.236 347.972 489.088 495.471 453.263 671.126C443.864 717.141 430.833 779.689 381.856 831.577C355.27 859.773 312.588 867.255 277.57 895.089C256.995 911.46 249.209 929.923 224.882 932.98C191.398 937.163 160.656 915.644 141.493 900.117C135.039 894.888 129.673 889.941 125.477 886.039C90.4999 853.498 77.0658 815.327 71.5388 796.462" stroke="#35D5C8" stroke-width="2" stroke-miterlimit="10"/>
<path d="M-46.9889 827.836C91.9118 640.034 109.057 504.803 82.3908 398.653C80.8578 392.62 78.7196 386.868 76.7025 381.237C42.3707 286.31 -33.353 242.104 -30.6903 178.431C-26.8578 88.2098 131.609 26.7083 184.943 77.5908C211.73 103.133 180.828 177.827 181.998 234.462C182.441 255.418 186.556 273.76 200.394 285.384C258.205 334.055 375.684 235.87 447.212 289.487C511.639 337.755 487.716 489.478 450.883 671.528C441.402 718.429 428.17 782.746 377.943 836.766C352.769 863.836 312.547 874.576 277.812 901.002C257.721 916.327 248.321 933.02 224.479 935.474C190.469 938.933 159.97 917.293 140.888 901.485C134.433 896.135 129.068 891.067 124.912 887.125C90.0156 853.981 76.9042 815.447 71.5789 796.422" stroke="#35DBCF" stroke-width="2" stroke-miterlimit="10"/>
<path d="M-46.9886 827.836C98.6897 637.499 115.997 504.682 88.967 403.802C87.3533 397.809 85.1344 392.137 82.9963 386.586C47.2928 293.67 -32.2634 253.688 -30.8918 187.32C-28.9553 92.9962 136.854 21.9216 187.848 69.5863C214.555 94.5247 180.102 171.19 179.133 229.112C178.77 250.591 182.442 269.376 196.198 281.241C252.477 329.791 372.699 226.779 445.679 279.552C512.043 327.538 486.345 483.565 448.463 672.011C438.861 719.796 425.427 785.843 373.949 841.995C350.228 867.899 312.386 881.896 277.973 906.955C258.367 921.194 247.313 936.157 223.995 938.008C189.502 940.703 159.204 918.982 140.202 902.893C133.707 897.422 128.382 892.274 124.307 888.292C89.5318 854.544 76.7028 815.648 71.6196 796.502" stroke="#36E1D7" stroke-width="2" stroke-miterlimit="10"/>
<path d="M-46.9884 827.836C105.467 635.006 122.936 504.561 95.5027 408.991C93.8083 403.038 91.5087 397.447 89.2899 391.936C52.2551 300.991 -31.174 265.313 -31.1337 196.21C-31.053 97.783 142.018 17.1353 190.752 61.5419C217.379 85.8367 179.376 164.514 176.31 223.682C175.18 245.684 178.367 264.911 192.084 277.018C246.829 325.407 369.713 217.568 444.146 269.537C512.447 317.241 484.65 477.451 446.042 672.413C436.239 721.084 422.603 788.779 369.956 847.184C347.646 871.961 312.305 889.257 278.175 912.868C259.093 926.102 246.426 939.255 223.551 940.502C188.533 942.433 158.518 920.632 139.557 904.261C133.062 898.629 127.737 893.4 123.702 889.378C89.0075 854.987 76.5416 815.769 71.6197 796.462" stroke="#37E7DF" stroke-width="2" stroke-miterlimit="10"/>
<path d="M-46.9889 827.836C112.245 632.471 129.753 504.481 102.038 414.139C100.222 408.226 97.9228 402.675 95.5829 397.285C57.2168 308.352 -30.0852 276.937 -31.3358 205.098C-33.1916 102.569 147.262 12.2678 193.616 53.4967C220.202 77.1078 178.609 157.836 173.404 218.292C171.468 240.857 174.211 260.486 187.847 272.834C241.181 321.102 366.728 208.437 442.572 259.601C512.809 306.984 483.319 471.538 443.581 672.855C433.657 722.411 419.658 791.715 365.961 852.412C345.063 876.064 312.184 896.618 278.336 918.781C259.738 930.968 245.457 942.311 223.067 942.955C187.565 944.041 157.751 922.24 138.871 905.587C132.376 899.836 127.05 894.486 123.056 890.464C88.4826 855.469 76.299 815.889 71.5789 796.462" stroke="#37EDE7" stroke-width="2" stroke-miterlimit="10"/>
<path d="M-46.9887 827.836C119.022 629.937 136.572 504.441 108.574 419.288C106.637 413.455 104.297 407.945 101.877 402.595C62.1792 315.632 -28.9957 288.522 -31.5777 213.948C-35.2892 107.356 152.507 7.44123 196.561 45.4523C223.107 68.3796 177.923 151.159 170.581 212.902C167.837 235.99 170.097 256.062 183.692 268.651C235.533 316.759 363.783 199.226 441.04 249.626C513.213 296.687 482.028 465.585 441.201 673.298C431.196 723.738 416.713 794.571 362.008 857.642C342.482 880.126 312.104 904.019 278.579 924.734C260.505 935.916 244.57 945.369 222.663 945.489C186.677 945.69 157.106 923.889 138.266 906.955C131.771 901.043 126.445 895.612 122.532 891.55C88.039 855.952 76.1782 815.97 71.6598 796.422" stroke="#38F3EF" stroke-width="2" stroke-miterlimit="10"/>
<path d="M-46.9887 827.836C125.8 627.444 143.309 504.441 115.109 424.477C113.092 418.685 110.671 413.214 108.13 407.985C67.2625 322.873 -27.9468 300.147 -31.8197 222.837C-37.4274 112.183 157.752 2.53422 199.426 37.4078C225.971 59.6513 177.036 144.442 167.676 207.472C164.085 231.043 165.982 251.557 179.496 264.428C229.885 312.334 360.797 190.015 439.507 239.651C513.616 286.39 480.697 459.592 438.74 673.741C428.654 725.106 413.566 797.347 358.014 862.831C339.9 884.189 312.023 911.42 278.74 930.647C261.15 940.824 243.642 948.426 222.179 947.983C185.709 947.259 156.299 925.539 137.58 908.323C131.045 902.29 125.76 896.739 121.887 892.676C87.5953 856.395 75.9362 816.131 71.6598 796.462" stroke="#38F9F7" stroke-width="2" stroke-miterlimit="10"/>
<path d="M-46.9889 827.836C132.577 624.91 150.006 504.481 121.644 429.625C84.8114 332.325 -26.535 316.799 -32.062 231.726C-39.5254 117.01 163.036 -2.3732 202.33 29.4032C238.841 58.9271 125.961 212.178 175.301 260.285C224.277 308.03 357.772 180.844 437.933 229.715C514.02 276.133 479.365 453.679 436.319 674.183C426.112 726.433 410.338 800.042 354.02 868.059C328.644 898.71 283.42 953.333 221.695 950.517C171.831 948.265 135.966 909.65 121.241 893.802C86.9899 856.958 75.6939 816.292 71.6193 796.462" stroke="#39FFFF" stroke-width="2" stroke-miterlimit="10"/>
</g>
<defs>
<clipPath id="clip0_1_864">
<rect width="951" height="560" fill="white" transform="translate(507) rotate(90)"/>
</clipPath>
</defs>
</svg>
